<mxfile host="65bd71144e">
    <diagram id="wmesJEoEN5wqwafLwKf4" name="Page-1">
        <mxGraphModel dx="2722" dy="2624" grid="1" gridSize="10" guides="1" tooltips="1" connect="1" arrows="1" fold="1" page="1" pageScale="1" pageWidth="900" pageHeight="1600" math="0" shadow="0">
            <root>
                <mxCell id="0"/>
                <mxCell id="1" parent="0"/>
                <mxCell id="46" value="" style="endArrow=classic;html=1;" parent="1" edge="1">
                    <mxGeometry width="50" height="50" relative="1" as="geometry">
                        <mxPoint x="439.58" y="60" as="sourcePoint"/>
                        <mxPoint x="439.58" y="100" as="targetPoint"/>
                        <Array as="points">
                            <mxPoint x="439.58" y="80"/>
                        </Array>
                    </mxGeometry>
                </mxCell>
                <mxCell id="47" value="work order creation and tracking" style="ellipse;whiteSpace=wrap;html=1;align=center;newEdgeStyle={&quot;edgeStyle&quot;:&quot;entityRelationEdgeStyle&quot;,&quot;startArrow&quot;:&quot;none&quot;,&quot;endArrow&quot;:&quot;none&quot;,&quot;segment&quot;:10,&quot;curved&quot;:1,&quot;sourcePerimeterSpacing&quot;:0,&quot;targetPerimeterSpacing&quot;:0};treeFolding=1;treeMoving=1;" parent="1" vertex="1">
                    <mxGeometry x="390" y="100" width="100" height="50" as="geometry"/>
                </mxCell>
                <mxCell id="49" value="" style="endArrow=classic;html=1;startArrow=none;" parent="1" source="43" target="50" edge="1">
                    <mxGeometry width="50" height="50" relative="1" as="geometry">
                        <mxPoint x="490" y="40" as="sourcePoint"/>
                        <mxPoint x="520" y="40" as="targetPoint"/>
                        <Array as="points"/>
                    </mxGeometry>
                </mxCell>
                <mxCell id="50" value="quality control checkpoints" style="ellipse;whiteSpace=wrap;html=1;align=center;newEdgeStyle={&quot;edgeStyle&quot;:&quot;entityRelationEdgeStyle&quot;,&quot;startArrow&quot;:&quot;none&quot;,&quot;endArrow&quot;:&quot;none&quot;,&quot;segment&quot;:10,&quot;curved&quot;:1,&quot;sourcePerimeterSpacing&quot;:0,&quot;targetPerimeterSpacing&quot;:0};treeFolding=1;treeMoving=1;" parent="1" vertex="1">
                    <mxGeometry x="530" y="20" width="100" height="40" as="geometry"/>
                </mxCell>
                <mxCell id="51" value="" style="endArrow=classic;html=1;" parent="1" target="52" edge="1">
                    <mxGeometry width="50" height="50" relative="1" as="geometry">
                        <mxPoint x="440" y="20" as="sourcePoint"/>
                        <mxPoint x="440" y="-10" as="targetPoint"/>
                    </mxGeometry>
                </mxCell>
                <mxCell id="52" value="machine utilization tracking" style="ellipse;whiteSpace=wrap;html=1;align=center;newEdgeStyle={&quot;edgeStyle&quot;:&quot;entityRelationEdgeStyle&quot;,&quot;startArrow&quot;:&quot;none&quot;,&quot;endArrow&quot;:&quot;none&quot;,&quot;segment&quot;:10,&quot;curved&quot;:1,&quot;sourcePerimeterSpacing&quot;:0,&quot;targetPerimeterSpacing&quot;:0};treeFolding=1;treeMoving=1;" parent="1" vertex="1">
                    <mxGeometry x="390" y="-50" width="110" height="40" as="geometry"/>
                </mxCell>
                <mxCell id="53" value="" style="endArrow=classic;html=1;exitX=0;exitY=0.5;exitDx=0;exitDy=0;" parent="1" source="43" edge="1">
                    <mxGeometry width="50" height="50" relative="1" as="geometry">
                        <mxPoint x="340" y="50" as="sourcePoint"/>
                        <mxPoint x="360" y="40" as="targetPoint"/>
                    </mxGeometry>
                </mxCell>
                <mxCell id="54" value="production schdule optimizayion" style="ellipse;whiteSpace=wrap;html=1;align=center;newEdgeStyle={&quot;edgeStyle&quot;:&quot;entityRelationEdgeStyle&quot;,&quot;startArrow&quot;:&quot;none&quot;,&quot;endArrow&quot;:&quot;none&quot;,&quot;segment&quot;:10,&quot;curved&quot;:1,&quot;sourcePerimeterSpacing&quot;:0,&quot;targetPerimeterSpacing&quot;:0};treeFolding=1;treeMoving=1;" parent="1" vertex="1">
                    <mxGeometry x="260" y="20" width="100" height="50" as="geometry"/>
                </mxCell>
                <mxCell id="55" value="" style="endArrow=classic;html=1;exitX=0.893;exitY=1.004;exitDx=0;exitDy=0;exitPerimeter=0;" parent="1" source="43" target="57" edge="1">
                    <mxGeometry width="50" height="50" relative="1" as="geometry">
                        <mxPoint x="470" y="90" as="sourcePoint"/>
                        <mxPoint x="520" y="80" as="targetPoint"/>
                        <Array as="points">
                            <mxPoint x="470" y="50"/>
                        </Array>
                    </mxGeometry>
                </mxCell>
                <mxCell id="56" value="" style="endArrow=none;html=1;" parent="1" target="43" edge="1">
                    <mxGeometry width="50" height="50" relative="1" as="geometry">
                        <mxPoint x="490" y="40" as="sourcePoint"/>
                        <mxPoint x="530" y="40" as="targetPoint"/>
                        <Array as="points"/>
                    </mxGeometry>
                </mxCell>
                <mxCell id="43" value="production mangement" style="ellipse;whiteSpace=wrap;html=1;align=center;newEdgeStyle={&quot;edgeStyle&quot;:&quot;entityRelationEdgeStyle&quot;,&quot;startArrow&quot;:&quot;none&quot;,&quot;endArrow&quot;:&quot;none&quot;,&quot;segment&quot;:10,&quot;curved&quot;:1,&quot;sourcePerimeterSpacing&quot;:0,&quot;targetPerimeterSpacing&quot;:0};treeFolding=1;treeMoving=1;" parent="1" vertex="1">
                    <mxGeometry x="390" y="20" width="100" height="40" as="geometry"/>
                </mxCell>
                <mxCell id="57" value="raw material requirment planning" style="ellipse;whiteSpace=wrap;html=1;align=center;newEdgeStyle={&quot;edgeStyle&quot;:&quot;entityRelationEdgeStyle&quot;,&quot;startArrow&quot;:&quot;none&quot;,&quot;endArrow&quot;:&quot;none&quot;,&quot;segment&quot;:10,&quot;curved&quot;:1,&quot;sourcePerimeterSpacing&quot;:0,&quot;targetPerimeterSpacing&quot;:0};treeFolding=1;treeMoving=1;" parent="1" vertex="1">
                    <mxGeometry x="490" y="70" width="100" height="50" as="geometry"/>
                </mxCell>
                <mxCell id="58" value="reporting and analytics" style="ellipse;whiteSpace=wrap;html=1;align=center;newEdgeStyle={&quot;edgeStyle&quot;:&quot;entityRelationEdgeStyle&quot;,&quot;startArrow&quot;:&quot;none&quot;,&quot;endArrow&quot;:&quot;none&quot;,&quot;segment&quot;:10,&quot;curved&quot;:1,&quot;sourcePerimeterSpacing&quot;:0,&quot;targetPerimeterSpacing&quot;:0};treeFolding=1;treeMoving=1;fontFamily=Helvetica;" parent="1" vertex="1">
                    <mxGeometry x="150" y="180" width="100" height="40" as="geometry"/>
                </mxCell>
                <mxCell id="59" value="export&amp;nbsp; capabilities" style="ellipse;whiteSpace=wrap;html=1;align=center;newEdgeStyle={&quot;edgeStyle&quot;:&quot;entityRelationEdgeStyle&quot;,&quot;startArrow&quot;:&quot;none&quot;,&quot;endArrow&quot;:&quot;none&quot;,&quot;segment&quot;:10,&quot;curved&quot;:1,&quot;sourcePerimeterSpacing&quot;:0,&quot;targetPerimeterSpacing&quot;:0};treeFolding=1;treeMoving=1;fontFamily=Helvetica;" parent="1" vertex="1">
                    <mxGeometry x="250" y="150" width="100" height="40" as="geometry"/>
                </mxCell>
                <mxCell id="60" value="standard repot templates" style="ellipse;whiteSpace=wrap;html=1;align=center;newEdgeStyle={&quot;edgeStyle&quot;:&quot;entityRelationEdgeStyle&quot;,&quot;startArrow&quot;:&quot;none&quot;,&quot;endArrow&quot;:&quot;none&quot;,&quot;segment&quot;:10,&quot;curved&quot;:1,&quot;sourcePerimeterSpacing&quot;:0,&quot;targetPerimeterSpacing&quot;:0};treeFolding=1;treeMoving=1;fontFamily=Helvetica;" parent="1" vertex="1">
                    <mxGeometry x="230" y="230" width="100" height="40" as="geometry"/>
                </mxCell>
                <mxCell id="61" value="advanced analytics" style="ellipse;whiteSpace=wrap;html=1;align=center;newEdgeStyle={&quot;edgeStyle&quot;:&quot;entityRelationEdgeStyle&quot;,&quot;startArrow&quot;:&quot;none&quot;,&quot;endArrow&quot;:&quot;none&quot;,&quot;segment&quot;:10,&quot;curved&quot;:1,&quot;sourcePerimeterSpacing&quot;:0,&quot;targetPerimeterSpacing&quot;:0};treeFolding=1;treeMoving=1;fontFamily=Helvetica;" parent="1" vertex="1">
                    <mxGeometry x="60" y="140" width="100" height="40" as="geometry"/>
                </mxCell>
                <mxCell id="62" value="customizable dashboards" style="ellipse;whiteSpace=wrap;html=1;align=center;newEdgeStyle={&quot;edgeStyle&quot;:&quot;entityRelationEdgeStyle&quot;,&quot;startArrow&quot;:&quot;none&quot;,&quot;endArrow&quot;:&quot;none&quot;,&quot;segment&quot;:10,&quot;curved&quot;:1,&quot;sourcePerimeterSpacing&quot;:0,&quot;targetPerimeterSpacing&quot;:0};treeFolding=1;treeMoving=1;fontFamily=Helvetica;" parent="1" vertex="1">
                    <mxGeometry x="60" y="220" width="100" height="40" as="geometry"/>
                </mxCell>
                <mxCell id="63" value="" style="endArrow=classic;html=1;fontFamily=Helvetica;exitX=1;exitY=0.5;exitDx=0;exitDy=0;entryX=0;entryY=1;entryDx=0;entryDy=0;" parent="1" source="58" target="59" edge="1">
                    <mxGeometry width="50" height="50" relative="1" as="geometry">
                        <mxPoint x="280" y="200" as="sourcePoint"/>
                        <mxPoint x="330" y="150" as="targetPoint"/>
                    </mxGeometry>
                </mxCell>
                <mxCell id="64" value="" style="endArrow=classic;html=1;fontFamily=Helvetica;exitX=1;exitY=1;exitDx=0;exitDy=0;" parent="1" source="58" edge="1">
                    <mxGeometry width="50" height="50" relative="1" as="geometry">
                        <mxPoint x="280" y="200" as="sourcePoint"/>
                        <mxPoint x="250" y="230" as="targetPoint"/>
                    </mxGeometry>
                </mxCell>
                <mxCell id="65" value="" style="endArrow=classic;html=1;fontFamily=Helvetica;exitX=0;exitY=1;exitDx=0;exitDy=0;entryX=1;entryY=0;entryDx=0;entryDy=0;" parent="1" source="58" target="62" edge="1">
                    <mxGeometry width="50" height="50" relative="1" as="geometry">
                        <mxPoint x="280" y="200" as="sourcePoint"/>
                        <mxPoint x="330" y="150" as="targetPoint"/>
                    </mxGeometry>
                </mxCell>
                <mxCell id="66" value="" style="endArrow=classic;html=1;fontFamily=Helvetica;exitX=0;exitY=0;exitDx=0;exitDy=0;entryX=1;entryY=1;entryDx=0;entryDy=0;" parent="1" source="58" target="61" edge="1">
                    <mxGeometry width="50" height="50" relative="1" as="geometry">
                        <mxPoint x="280" y="200" as="sourcePoint"/>
                        <mxPoint x="330" y="150" as="targetPoint"/>
                    </mxGeometry>
                </mxCell>
                <mxCell id="67" value="&lt;br&gt;&lt;br&gt;system&lt;br&gt;admistrator" style="shape=actor;whiteSpace=wrap;html=1;fontFamily=Helvetica;" parent="1" vertex="1">
                    <mxGeometry x="-50" y="40" width="70" height="100" as="geometry"/>
                </mxCell>
                <mxCell id="68" value="" style="endArrow=classic;html=1;fontFamily=Helvetica;exitX=1;exitY=0.75;exitDx=0;exitDy=0;entryX=0.08;entryY=0.202;entryDx=0;entryDy=0;entryPerimeter=0;" parent="1" source="67" target="43" edge="1">
                    <mxGeometry width="50" height="50" relative="1" as="geometry">
                        <mxPoint x="100" y="160" as="sourcePoint"/>
                        <mxPoint x="150" y="110" as="targetPoint"/>
                        <Array as="points">
                            <mxPoint x="190" y="-10"/>
                        </Array>
                    </mxGeometry>
                </mxCell>
                <mxCell id="70" value="sales operation" style="ellipse;whiteSpace=wrap;html=1;align=center;newEdgeStyle={&quot;edgeStyle&quot;:&quot;entityRelationEdgeStyle&quot;,&quot;startArrow&quot;:&quot;none&quot;,&quot;endArrow&quot;:&quot;none&quot;,&quot;segment&quot;:10,&quot;curved&quot;:1,&quot;sourcePerimeterSpacing&quot;:0,&quot;targetPerimeterSpacing&quot;:0};treeFolding=1;treeMoving=1;fontFamily=Helvetica;" parent="1" vertex="1">
                    <mxGeometry x="510" y="270" width="100" height="40" as="geometry"/>
                </mxCell>
                <mxCell id="71" value="pricing and promotion handling" style="ellipse;whiteSpace=wrap;html=1;align=center;newEdgeStyle={&quot;edgeStyle&quot;:&quot;entityRelationEdgeStyle&quot;,&quot;startArrow&quot;:&quot;none&quot;,&quot;endArrow&quot;:&quot;none&quot;,&quot;segment&quot;:10,&quot;curved&quot;:1,&quot;sourcePerimeterSpacing&quot;:0,&quot;targetPerimeterSpacing&quot;:0};treeFolding=1;treeMoving=1;fontFamily=Helvetica;" parent="1" vertex="1">
                    <mxGeometry x="580" y="210" width="100" height="50" as="geometry"/>
                </mxCell>
                <mxCell id="72" value="POS integration" style="ellipse;whiteSpace=wrap;html=1;align=center;newEdgeStyle={&quot;edgeStyle&quot;:&quot;entityRelationEdgeStyle&quot;,&quot;startArrow&quot;:&quot;none&quot;,&quot;endArrow&quot;:&quot;none&quot;,&quot;segment&quot;:10,&quot;curved&quot;:1,&quot;sourcePerimeterSpacing&quot;:0,&quot;targetPerimeterSpacing&quot;:0};treeFolding=1;treeMoving=1;fontFamily=Helvetica;" parent="1" vertex="1">
                    <mxGeometry x="420" y="220" width="100" height="40" as="geometry"/>
                </mxCell>
                <mxCell id="73" value="returns mangement" style="ellipse;whiteSpace=wrap;html=1;align=center;newEdgeStyle={&quot;edgeStyle&quot;:&quot;entityRelationEdgeStyle&quot;,&quot;startArrow&quot;:&quot;none&quot;,&quot;endArrow&quot;:&quot;none&quot;,&quot;segment&quot;:10,&quot;curved&quot;:1,&quot;sourcePerimeterSpacing&quot;:0,&quot;targetPerimeterSpacing&quot;:0};treeFolding=1;treeMoving=1;fontFamily=Helvetica;" parent="1" vertex="1">
                    <mxGeometry x="600" y="310" width="100" height="40" as="geometry"/>
                </mxCell>
                <mxCell id="74" value="sales order processing" style="ellipse;whiteSpace=wrap;html=1;align=center;newEdgeStyle={&quot;edgeStyle&quot;:&quot;entityRelationEdgeStyle&quot;,&quot;startArrow&quot;:&quot;none&quot;,&quot;endArrow&quot;:&quot;none&quot;,&quot;segment&quot;:10,&quot;curved&quot;:1,&quot;sourcePerimeterSpacing&quot;:0,&quot;targetPerimeterSpacing&quot;:0};treeFolding=1;treeMoving=1;fontFamily=Helvetica;" parent="1" vertex="1">
                    <mxGeometry x="420" y="310" width="100" height="40" as="geometry"/>
                </mxCell>
                <mxCell id="75" value="" style="endArrow=classic;html=1;fontFamily=Helvetica;exitX=0;exitY=0;exitDx=0;exitDy=0;entryX=1;entryY=1;entryDx=0;entryDy=0;" parent="1" source="70" target="72" edge="1">
                    <mxGeometry width="50" height="50" relative="1" as="geometry">
                        <mxPoint x="370" y="330" as="sourcePoint"/>
                        <mxPoint x="420" y="280" as="targetPoint"/>
                    </mxGeometry>
                </mxCell>
                <mxCell id="76" value="" style="endArrow=classic;html=1;fontFamily=Helvetica;exitX=1;exitY=0;exitDx=0;exitDy=0;entryX=0.5;entryY=1;entryDx=0;entryDy=0;" parent="1" source="70" target="71" edge="1">
                    <mxGeometry width="50" height="50" relative="1" as="geometry">
                        <mxPoint x="370" y="330" as="sourcePoint"/>
                        <mxPoint x="420" y="280" as="targetPoint"/>
                    </mxGeometry>
                </mxCell>
                <mxCell id="77" value="" style="endArrow=classic;html=1;fontFamily=Helvetica;exitX=0;exitY=1;exitDx=0;exitDy=0;entryX=1;entryY=0;entryDx=0;entryDy=0;" parent="1" source="70" target="74" edge="1">
                    <mxGeometry width="50" height="50" relative="1" as="geometry">
                        <mxPoint x="370" y="330" as="sourcePoint"/>
                        <mxPoint x="420" y="280" as="targetPoint"/>
                    </mxGeometry>
                </mxCell>
                <mxCell id="78" value="" style="endArrow=classic;html=1;fontFamily=Helvetica;exitX=1;exitY=1;exitDx=0;exitDy=0;entryX=0;entryY=0;entryDx=0;entryDy=0;" parent="1" source="70" target="73" edge="1">
                    <mxGeometry width="50" height="50" relative="1" as="geometry">
                        <mxPoint x="370" y="330" as="sourcePoint"/>
                        <mxPoint x="420" y="280" as="targetPoint"/>
                    </mxGeometry>
                </mxCell>
                <mxCell id="79" value="customer order tracking" style="ellipse;whiteSpace=wrap;html=1;align=center;newEdgeStyle={&quot;edgeStyle&quot;:&quot;entityRelationEdgeStyle&quot;,&quot;startArrow&quot;:&quot;none&quot;,&quot;endArrow&quot;:&quot;none&quot;,&quot;segment&quot;:10,&quot;curved&quot;:1,&quot;sourcePerimeterSpacing&quot;:0,&quot;targetPerimeterSpacing&quot;:0};treeFolding=1;treeMoving=1;fontFamily=Helvetica;" parent="1" vertex="1">
                    <mxGeometry x="510" y="350" width="100" height="40" as="geometry"/>
                </mxCell>
                <mxCell id="81" value="" style="endArrow=classic;html=1;fontFamily=Helvetica;exitX=0.5;exitY=1;exitDx=0;exitDy=0;entryX=0.5;entryY=0;entryDx=0;entryDy=0;" parent="1" source="70" target="79" edge="1">
                    <mxGeometry width="50" height="50" relative="1" as="geometry">
                        <mxPoint x="370" y="280" as="sourcePoint"/>
                        <mxPoint x="420" y="230" as="targetPoint"/>
                    </mxGeometry>
                </mxCell>
                <mxCell id="82" value="&lt;br&gt;&lt;br&gt;production&lt;br&gt;supervisor" style="shape=actor;whiteSpace=wrap;html=1;fontFamily=Helvetica;" parent="1" vertex="1">
                    <mxGeometry x="750" y="15" width="70" height="95" as="geometry"/>
                </mxCell>
                <mxCell id="83" value="" style="endArrow=classic;html=1;fontFamily=Helvetica;exitX=0;exitY=0.75;exitDx=0;exitDy=0;entryX=1;entryY=0;entryDx=0;entryDy=0;" parent="1" source="82" target="43" edge="1">
                    <mxGeometry width="50" height="50" relative="1" as="geometry">
                        <mxPoint x="460" y="260" as="sourcePoint"/>
                        <mxPoint x="510" y="210" as="targetPoint"/>
                        <Array as="points">
                            <mxPoint x="610" y="-10"/>
                        </Array>
                    </mxGeometry>
                </mxCell>
                <mxCell id="84" value="warehouse operation" style="ellipse;whiteSpace=wrap;html=1;align=center;newEdgeStyle={&quot;edgeStyle&quot;:&quot;entityRelationEdgeStyle&quot;,&quot;startArrow&quot;:&quot;none&quot;,&quot;endArrow&quot;:&quot;none&quot;,&quot;segment&quot;:10,&quot;curved&quot;:1,&quot;sourcePerimeterSpacing&quot;:0,&quot;targetPerimeterSpacing&quot;:0};treeFolding=1;treeMoving=1;fontFamily=Helvetica;" parent="1" vertex="1">
                    <mxGeometry x="130" y="370" width="100" height="40" as="geometry"/>
                </mxCell>
                <mxCell id="85" value="pick,pack,and ship operations" style="ellipse;whiteSpace=wrap;html=1;align=center;newEdgeStyle={&quot;edgeStyle&quot;:&quot;entityRelationEdgeStyle&quot;,&quot;startArrow&quot;:&quot;none&quot;,&quot;endArrow&quot;:&quot;none&quot;,&quot;segment&quot;:10,&quot;curved&quot;:1,&quot;sourcePerimeterSpacing&quot;:0,&quot;targetPerimeterSpacing&quot;:0};treeFolding=1;treeMoving=1;fontFamily=Helvetica;" parent="1" vertex="1">
                    <mxGeometry x="230" y="330" width="100" height="50" as="geometry"/>
                </mxCell>
                <mxCell id="86" value="receving and putaway management" style="ellipse;whiteSpace=wrap;html=1;align=center;newEdgeStyle={&quot;edgeStyle&quot;:&quot;entityRelationEdgeStyle&quot;,&quot;startArrow&quot;:&quot;none&quot;,&quot;endArrow&quot;:&quot;none&quot;,&quot;segment&quot;:10,&quot;curved&quot;:1,&quot;sourcePerimeterSpacing&quot;:0,&quot;targetPerimeterSpacing&quot;:0};treeFolding=1;treeMoving=1;fontFamily=Helvetica;" parent="1" vertex="1">
                    <mxGeometry x="30" y="320" width="100" height="60" as="geometry"/>
                </mxCell>
                <mxCell id="87" value="storage location optimization" style="ellipse;whiteSpace=wrap;html=1;align=center;newEdgeStyle={&quot;edgeStyle&quot;:&quot;entityRelationEdgeStyle&quot;,&quot;startArrow&quot;:&quot;none&quot;,&quot;endArrow&quot;:&quot;none&quot;,&quot;segment&quot;:10,&quot;curved&quot;:1,&quot;sourcePerimeterSpacing&quot;:0,&quot;targetPerimeterSpacing&quot;:0};treeFolding=1;treeMoving=1;fontFamily=Helvetica;" parent="1" vertex="1">
                    <mxGeometry x="240" y="400" width="100" height="50" as="geometry"/>
                </mxCell>
                <mxCell id="88" value="stock transfer mangement" style="ellipse;whiteSpace=wrap;html=1;align=center;newEdgeStyle={&quot;edgeStyle&quot;:&quot;entityRelationEdgeStyle&quot;,&quot;startArrow&quot;:&quot;none&quot;,&quot;endArrow&quot;:&quot;none&quot;,&quot;segment&quot;:10,&quot;curved&quot;:1,&quot;sourcePerimeterSpacing&quot;:0,&quot;targetPerimeterSpacing&quot;:0};treeFolding=1;treeMoving=1;fontFamily=Helvetica;" parent="1" vertex="1">
                    <mxGeometry x="30" y="400" width="100" height="40" as="geometry"/>
                </mxCell>
                <mxCell id="89" value="cross-docking support" style="ellipse;whiteSpace=wrap;html=1;align=center;newEdgeStyle={&quot;edgeStyle&quot;:&quot;entityRelationEdgeStyle&quot;,&quot;startArrow&quot;:&quot;none&quot;,&quot;endArrow&quot;:&quot;none&quot;,&quot;segment&quot;:10,&quot;curved&quot;:1,&quot;sourcePerimeterSpacing&quot;:0,&quot;targetPerimeterSpacing&quot;:0};treeFolding=1;treeMoving=1;fontFamily=Helvetica;" parent="1" vertex="1">
                    <mxGeometry x="130" y="430" width="100" height="40" as="geometry"/>
                </mxCell>
                <mxCell id="90" value="" style="endArrow=classic;html=1;fontFamily=Helvetica;exitX=1;exitY=0;exitDx=0;exitDy=0;entryX=0.073;entryY=0.711;entryDx=0;entryDy=0;entryPerimeter=0;" parent="1" source="84" target="85" edge="1">
                    <mxGeometry width="50" height="50" relative="1" as="geometry">
                        <mxPoint x="280" y="370" as="sourcePoint"/>
                        <mxPoint x="330" y="320" as="targetPoint"/>
                    </mxGeometry>
                </mxCell>
                <mxCell id="91" value="" style="endArrow=classic;html=1;fontFamily=Helvetica;exitX=1;exitY=1;exitDx=0;exitDy=0;entryX=0;entryY=0.5;entryDx=0;entryDy=0;" parent="1" source="84" target="87" edge="1">
                    <mxGeometry width="50" height="50" relative="1" as="geometry">
                        <mxPoint x="280" y="370" as="sourcePoint"/>
                        <mxPoint x="330" y="320" as="targetPoint"/>
                    </mxGeometry>
                </mxCell>
                <mxCell id="94" value="" style="endArrow=classic;html=1;fontFamily=Helvetica;exitX=0.5;exitY=1;exitDx=0;exitDy=0;entryX=0.5;entryY=0;entryDx=0;entryDy=0;" parent="1" source="84" target="89" edge="1">
                    <mxGeometry width="50" height="50" relative="1" as="geometry">
                        <mxPoint x="280" y="370" as="sourcePoint"/>
                        <mxPoint x="330" y="320" as="targetPoint"/>
                    </mxGeometry>
                </mxCell>
                <mxCell id="95" value="" style="endArrow=classic;html=1;fontFamily=Helvetica;exitX=0;exitY=0;exitDx=0;exitDy=0;entryX=1;entryY=1;entryDx=0;entryDy=0;" parent="1" source="84" target="86" edge="1">
                    <mxGeometry width="50" height="50" relative="1" as="geometry">
                        <mxPoint x="280" y="370" as="sourcePoint"/>
                        <mxPoint x="330" y="320" as="targetPoint"/>
                    </mxGeometry>
                </mxCell>
                <mxCell id="97" value="" style="endArrow=classic;html=1;fontFamily=Helvetica;exitX=0;exitY=1;exitDx=0;exitDy=0;entryX=0.975;entryY=0.375;entryDx=0;entryDy=0;entryPerimeter=0;" parent="1" source="84" target="88" edge="1">
                    <mxGeometry width="50" height="50" relative="1" as="geometry">
                        <mxPoint x="280" y="320" as="sourcePoint"/>
                        <mxPoint x="330" y="270" as="targetPoint"/>
                    </mxGeometry>
                </mxCell>
                <mxCell id="98" value="&lt;br&gt;&lt;br&gt;&lt;br&gt;rational&lt;br&gt;manger" style="shape=actor;whiteSpace=wrap;html=1;fontFamily=Helvetica;" parent="1" vertex="1">
                    <mxGeometry x="-80" y="250" width="70" height="100" as="geometry"/>
                </mxCell>
                <mxCell id="99" value="" style="endArrow=classic;html=1;fontFamily=Helvetica;exitX=0.9;exitY=0.5;exitDx=0;exitDy=0;exitPerimeter=0;entryX=0;entryY=1;entryDx=0;entryDy=0;" parent="1" source="98" target="43" edge="1">
                    <mxGeometry width="50" height="50" relative="1" as="geometry">
                        <mxPoint x="-70" y="290" as="sourcePoint"/>
                        <mxPoint x="-20" y="240" as="targetPoint"/>
                        <Array as="points">
                            <mxPoint x="60" y="120"/>
                        </Array>
                    </mxGeometry>
                </mxCell>
                <mxCell id="100" value="" style="endArrow=classic;html=1;fontFamily=Helvetica;exitX=1;exitY=0.6;exitDx=0;exitDy=0;exitPerimeter=0;entryX=0.5;entryY=1;entryDx=0;entryDy=0;" parent="1" source="98" target="58" edge="1">
                    <mxGeometry width="50" height="50" relative="1" as="geometry">
                        <mxPoint x="320" y="280" as="sourcePoint"/>
                        <mxPoint x="370" y="230" as="targetPoint"/>
                        <Array as="points">
                            <mxPoint x="160" y="280"/>
                        </Array>
                    </mxGeometry>
                </mxCell>
                <mxCell id="101" value="" style="endArrow=classic;html=1;fontFamily=Helvetica;exitX=1;exitY=0.75;exitDx=0;exitDy=0;entryX=0;entryY=0.5;entryDx=0;entryDy=0;" parent="1" source="98" target="84" edge="1">
                    <mxGeometry width="50" height="50" relative="1" as="geometry">
                        <mxPoint x="320" y="280" as="sourcePoint"/>
                        <mxPoint x="370" y="230" as="targetPoint"/>
                        <Array as="points">
                            <mxPoint y="390"/>
                        </Array>
                    </mxGeometry>
                </mxCell>
                <mxCell id="102" value="inventory mangement" style="ellipse;whiteSpace=wrap;html=1;align=center;newEdgeStyle={&quot;edgeStyle&quot;:&quot;entityRelationEdgeStyle&quot;,&quot;startArrow&quot;:&quot;none&quot;,&quot;endArrow&quot;:&quot;none&quot;,&quot;segment&quot;:10,&quot;curved&quot;:1,&quot;sourcePerimeterSpacing&quot;:0,&quot;targetPerimeterSpacing&quot;:0};treeFolding=1;treeMoving=1;fontFamily=Helvetica;" parent="1" vertex="1">
                    <mxGeometry x="550" y="530" width="100" height="40" as="geometry"/>
                </mxCell>
                <mxCell id="103" value="real-time inventory tracking" style="ellipse;whiteSpace=wrap;html=1;align=center;newEdgeStyle={&quot;edgeStyle&quot;:&quot;entityRelationEdgeStyle&quot;,&quot;startArrow&quot;:&quot;none&quot;,&quot;endArrow&quot;:&quot;none&quot;,&quot;segment&quot;:10,&quot;curved&quot;:1,&quot;sourcePerimeterSpacing&quot;:0,&quot;targetPerimeterSpacing&quot;:0};treeFolding=1;treeMoving=1;fontFamily=Helvetica;" parent="1" vertex="1">
                    <mxGeometry x="650" y="480" width="110" height="60" as="geometry"/>
                </mxCell>
                <mxCell id="104" value="multi-location stock mangement" style="ellipse;whiteSpace=wrap;html=1;align=center;newEdgeStyle={&quot;edgeStyle&quot;:&quot;entityRelationEdgeStyle&quot;,&quot;startArrow&quot;:&quot;none&quot;,&quot;endArrow&quot;:&quot;none&quot;,&quot;segment&quot;:10,&quot;curved&quot;:1,&quot;sourcePerimeterSpacing&quot;:0,&quot;targetPerimeterSpacing&quot;:0};treeFolding=1;treeMoving=1;fontFamily=Helvetica;" parent="1" vertex="1">
                    <mxGeometry x="430" y="490" width="110" height="50" as="geometry"/>
                </mxCell>
                <mxCell id="105" value="inventory reconciliation tools" style="ellipse;whiteSpace=wrap;html=1;align=center;newEdgeStyle={&quot;edgeStyle&quot;:&quot;entityRelationEdgeStyle&quot;,&quot;startArrow&quot;:&quot;none&quot;,&quot;endArrow&quot;:&quot;none&quot;,&quot;segment&quot;:10,&quot;curved&quot;:1,&quot;sourcePerimeterSpacing&quot;:0,&quot;targetPerimeterSpacing&quot;:0};treeFolding=1;treeMoving=1;fontFamily=Helvetica;" parent="1" vertex="1">
                    <mxGeometry x="670" y="570" width="100" height="50" as="geometry"/>
                </mxCell>
                <mxCell id="106" value="automated reorder point calculation" style="ellipse;whiteSpace=wrap;html=1;align=center;newEdgeStyle={&quot;edgeStyle&quot;:&quot;entityRelationEdgeStyle&quot;,&quot;startArrow&quot;:&quot;none&quot;,&quot;endArrow&quot;:&quot;none&quot;,&quot;segment&quot;:10,&quot;curved&quot;:1,&quot;sourcePerimeterSpacing&quot;:0,&quot;targetPerimeterSpacing&quot;:0};treeFolding=1;treeMoving=1;fontFamily=Helvetica;" parent="1" vertex="1">
                    <mxGeometry x="460" y="570" width="100" height="50" as="geometry"/>
                </mxCell>
                <mxCell id="107" value="batch and expiry date tracking" style="ellipse;whiteSpace=wrap;html=1;align=center;newEdgeStyle={&quot;edgeStyle&quot;:&quot;entityRelationEdgeStyle&quot;,&quot;startArrow&quot;:&quot;none&quot;,&quot;endArrow&quot;:&quot;none&quot;,&quot;segment&quot;:10,&quot;curved&quot;:1,&quot;sourcePerimeterSpacing&quot;:0,&quot;targetPerimeterSpacing&quot;:0};treeFolding=1;treeMoving=1;fontFamily=Helvetica;" parent="1" vertex="1">
                    <mxGeometry x="560" y="610" width="100" height="50" as="geometry"/>
                </mxCell>
                <mxCell id="108" value="" style="endArrow=classic;html=1;fontFamily=Helvetica;exitX=0;exitY=0;exitDx=0;exitDy=0;" parent="1" source="102" edge="1">
                    <mxGeometry width="50" height="50" relative="1" as="geometry">
                        <mxPoint x="320" y="350" as="sourcePoint"/>
                        <mxPoint x="540" y="520" as="targetPoint"/>
                    </mxGeometry>
                </mxCell>
                <mxCell id="109" value="" style="endArrow=classic;html=1;fontFamily=Helvetica;exitX=1;exitY=0;exitDx=0;exitDy=0;entryX=0;entryY=1;entryDx=0;entryDy=0;" parent="1" source="102" target="103" edge="1">
                    <mxGeometry width="50" height="50" relative="1" as="geometry">
                        <mxPoint x="320" y="350" as="sourcePoint"/>
                        <mxPoint x="370" y="300" as="targetPoint"/>
                    </mxGeometry>
                </mxCell>
                <mxCell id="110" value="" style="endArrow=classic;html=1;fontFamily=Helvetica;exitX=1;exitY=1;exitDx=0;exitDy=0;entryX=0;entryY=0;entryDx=0;entryDy=0;" parent="1" source="102" target="105" edge="1">
                    <mxGeometry width="50" height="50" relative="1" as="geometry">
                        <mxPoint x="320" y="350" as="sourcePoint"/>
                        <mxPoint x="370" y="300" as="targetPoint"/>
                    </mxGeometry>
                </mxCell>
                <mxCell id="111" value="" style="endArrow=classic;html=1;fontFamily=Helvetica;exitX=0;exitY=1;exitDx=0;exitDy=0;entryX=1;entryY=0;entryDx=0;entryDy=0;" parent="1" source="102" target="106" edge="1">
                    <mxGeometry width="50" height="50" relative="1" as="geometry">
                        <mxPoint x="320" y="350" as="sourcePoint"/>
                        <mxPoint x="370" y="300" as="targetPoint"/>
                    </mxGeometry>
                </mxCell>
                <mxCell id="112" value="" style="endArrow=classic;html=1;fontFamily=Helvetica;exitX=0.5;exitY=1;exitDx=0;exitDy=0;entryX=0.5;entryY=0;entryDx=0;entryDy=0;" parent="1" source="102" target="107" edge="1">
                    <mxGeometry width="50" height="50" relative="1" as="geometry">
                        <mxPoint x="320" y="350" as="sourcePoint"/>
                        <mxPoint x="370" y="300" as="targetPoint"/>
                    </mxGeometry>
                </mxCell>
                <mxCell id="113" value="" style="endArrow=classic;html=1;fontFamily=Helvetica;exitX=0.75;exitY=1;exitDx=0;exitDy=0;entryX=0.5;entryY=0;entryDx=0;entryDy=0;" parent="1" source="67" target="102" edge="1">
                    <mxGeometry width="50" height="50" relative="1" as="geometry">
                        <mxPoint x="340" y="500" as="sourcePoint"/>
                        <mxPoint x="390" y="450" as="targetPoint"/>
                        <Array as="points">
                            <mxPoint x="40" y="270"/>
                            <mxPoint x="370" y="330"/>
                        </Array>
                    </mxGeometry>
                </mxCell>
                <mxCell id="114" value="" style="endArrow=classic;html=1;fontFamily=Helvetica;entryX=0.5;entryY=0;entryDx=0;entryDy=0;" parent="1" target="84" edge="1">
                    <mxGeometry width="50" height="50" relative="1" as="geometry">
                        <mxPoint x="190" y="300" as="sourcePoint"/>
                        <mxPoint x="390" y="450" as="targetPoint"/>
                    </mxGeometry>
                </mxCell>
                <mxCell id="115" value="&lt;br&gt;&lt;br&gt;&lt;br&gt;store&lt;br&gt;manger" style="shape=actor;whiteSpace=wrap;html=1;fontFamily=Helvetica;" parent="1" vertex="1">
                    <mxGeometry x="-90" y="520" width="80" height="110" as="geometry"/>
                </mxCell>
                <mxCell id="116" value="" style="endArrow=classic;html=1;fontFamily=Helvetica;exitX=0.9;exitY=0.5;exitDx=0;exitDy=0;exitPerimeter=0;entryX=0.284;entryY=0.91;entryDx=0;entryDy=0;entryPerimeter=0;" parent="1" source="115" target="84" edge="1">
                    <mxGeometry width="50" height="50" relative="1" as="geometry">
                        <mxPoint x="340" y="500" as="sourcePoint"/>
                        <mxPoint x="390" y="450" as="targetPoint"/>
                    </mxGeometry>
                </mxCell>
                <mxCell id="117" value="" style="endArrow=classic;html=1;fontFamily=Helvetica;exitX=1;exitY=0.75;exitDx=0;exitDy=0;" parent="1" source="115" edge="1">
                    <mxGeometry width="50" height="50" relative="1" as="geometry">
                        <mxPoint x="340" y="500" as="sourcePoint"/>
                        <mxPoint x="550" y="550" as="targetPoint"/>
                    </mxGeometry>
                </mxCell>
                <mxCell id="118" value="&lt;br&gt;&lt;br&gt;&lt;br&gt;warehouse&lt;br&gt;manger" style="shape=actor;whiteSpace=wrap;html=1;fontFamily=Helvetica;" parent="1" vertex="1">
                    <mxGeometry x="-90" y="660" width="80" height="110" as="geometry"/>
                </mxCell>
                <mxCell id="121" value="" style="endArrow=classic;html=1;fontFamily=Helvetica;exitX=1;exitY=0.75;exitDx=0;exitDy=0;entryX=0.5;entryY=1;entryDx=0;entryDy=0;" parent="1" source="118" target="102" edge="1">
                    <mxGeometry width="50" height="50" relative="1" as="geometry">
                        <mxPoint x="340" y="440" as="sourcePoint"/>
                        <mxPoint x="390" y="390" as="targetPoint"/>
                        <Array as="points">
                            <mxPoint x="480" y="700"/>
                        </Array>
                    </mxGeometry>
                </mxCell>
                <mxCell id="122" value="zzz" style="endArrow=classic;html=1;fontFamily=Helvetica;exitX=0.9;exitY=0.5;exitDx=0;exitDy=0;exitPerimeter=0;" parent="1" source="118" target="84" edge="1">
                    <mxGeometry width="50" height="50" relative="1" as="geometry">
                        <mxPoint x="340" y="440" as="sourcePoint"/>
                        <mxPoint x="390" y="390" as="targetPoint"/>
                        <Array as="points">
                            <mxPoint x="310" y="500"/>
                        </Array>
                    </mxGeometry>
                </mxCell>
                <mxCell id="123" value="&lt;br&gt;&lt;br&gt;sales&lt;br&gt;staff" style="shape=actor;whiteSpace=wrap;html=1;fontFamily=Helvetica;" parent="1" vertex="1">
                    <mxGeometry x="770" y="250" width="70" height="100" as="geometry"/>
                </mxCell>
                <mxCell id="124" value="" style="endArrow=classic;html=1;fontFamily=Helvetica;exitX=0.069;exitY=0.668;exitDx=0;exitDy=0;exitPerimeter=0;entryX=1;entryY=0.5;entryDx=0;entryDy=0;" parent="1" source="123" target="70" edge="1">
                    <mxGeometry width="50" height="50" relative="1" as="geometry">
                        <mxPoint x="880" y="380" as="sourcePoint"/>
                        <mxPoint x="930" y="330" as="targetPoint"/>
                    </mxGeometry>
                </mxCell>
                <mxCell id="125" value="&lt;br&gt;&lt;br&gt;&lt;br&gt;inventory&lt;br&gt;clerk" style="shape=actor;whiteSpace=wrap;html=1;fontFamily=Helvetica;" parent="1" vertex="1">
                    <mxGeometry x="810" y="470" width="70" height="90" as="geometry"/>
                </mxCell>
                <mxCell id="126" value="" style="endArrow=classic;html=1;fontFamily=Helvetica;exitX=0;exitY=0.75;exitDx=0;exitDy=0;entryX=1;entryY=0.5;entryDx=0;entryDy=0;" parent="1" source="125" target="102" edge="1">
                    <mxGeometry width="50" height="50" relative="1" as="geometry">
                        <mxPoint x="880" y="350" as="sourcePoint"/>
                        <mxPoint x="930" y="300" as="targetPoint"/>
                    </mxGeometry>
                </mxCell>
                <mxCell id="127" value="" style="endArrow=classic;html=1;fontFamily=Helvetica;exitX=0.25;exitY=0.2;exitDx=0;exitDy=0;exitPerimeter=0;entryX=1;entryY=0.5;entryDx=0;entryDy=0;" parent="1" source="125" target="58" edge="1">
                    <mxGeometry width="50" height="50" relative="1" as="geometry">
                        <mxPoint x="880" y="350" as="sourcePoint"/>
                        <mxPoint x="720" y="410" as="targetPoint"/>
                        <Array as="points">
                            <mxPoint x="610" y="430"/>
                            <mxPoint x="420" y="350"/>
                            <mxPoint x="350" y="240"/>
                        </Array>
                    </mxGeometry>
                </mxCell>
            </root>
        </mxGraphModel>
    </diagram>
    <diagram id="__q8jv5lOM_KPzieoZnv" name="Page-2">
        <mxGraphModel dx="1653" dy="704" grid="0" gridSize="10" guides="1" tooltips="1" connect="1" arrows="1" fold="1" page="0" pageScale="1" pageWidth="850" pageHeight="1100" background="#000000" math="0" shadow="1">
            <root>
                <mxCell id="0"/>
                <mxCell id="1" parent="0"/>
                <mxCell id="EEbqEYu41kwPEBSpiMuM-60" value="" style="whiteSpace=wrap;strokeWidth=2;sketch=1;curveFitting=1;jiggle=2;" parent="1" vertex="1">
                    <mxGeometry x="-20" y="539" width="820" height="211" as="geometry"/>
                </mxCell>
                <mxCell id="EEbqEYu41kwPEBSpiMuM-61" value="" style="whiteSpace=wrap;strokeWidth=2;sketch=1;curveFitting=1;jiggle=2;" parent="1" vertex="1">
                    <mxGeometry x="840" y="530" width="730" height="230" as="geometry"/>
                </mxCell>
                <mxCell id="b2-oXmNP4d8y3Grfg1Qt-40" style="edgeStyle=none;html=1;entryX=1;entryY=0.5;entryDx=0;entryDy=0;sketch=1;curveFitting=1;jiggle=2;" parent="1" source="EEbqEYu41kwPEBSpiMuM-66" target="b2-oXmNP4d8y3Grfg1Qt-17" edge="1">
                    <mxGeometry relative="1" as="geometry"/>
                </mxCell>
                <mxCell id="b2-oXmNP4d8y3Grfg1Qt-56" style="edgeStyle=none;html=1;entryX=0.5;entryY=0;entryDx=0;entryDy=0;sketch=1;curveFitting=1;jiggle=2;" parent="1" source="EEbqEYu41kwPEBSpiMuM-66" target="b2-oXmNP4d8y3Grfg1Qt-51" edge="1">
                    <mxGeometry relative="1" as="geometry"/>
                </mxCell>
                <mxCell id="EEbqEYu41kwPEBSpiMuM-66" value="Store Manager" style="whiteSpace=wrap;strokeWidth=2;sketch=1;curveFitting=1;jiggle=2;" parent="1" vertex="1">
                    <mxGeometry x="1480" y="941" width="162" height="49" as="geometry"/>
                </mxCell>
                <mxCell id="b2-oXmNP4d8y3Grfg1Qt-4" style="edgeStyle=none;html=1;sketch=1;curveFitting=1;jiggle=2;" parent="1" source="EEbqEYu41kwPEBSpiMuM-67" target="EEbqEYu41kwPEBSpiMuM-93" edge="1">
                    <mxGeometry relative="1" as="geometry"/>
                </mxCell>
                <mxCell id="b2-oXmNP4d8y3Grfg1Qt-5" style="edgeStyle=none;html=1;sketch=1;curveFitting=1;jiggle=2;" parent="1" source="EEbqEYu41kwPEBSpiMuM-67" target="EEbqEYu41kwPEBSpiMuM-92" edge="1">
                    <mxGeometry relative="1" as="geometry"/>
                </mxCell>
                <mxCell id="b2-oXmNP4d8y3Grfg1Qt-6" style="edgeStyle=none;html=1;sketch=1;curveFitting=1;jiggle=2;" parent="1" source="EEbqEYu41kwPEBSpiMuM-67" target="EEbqEYu41kwPEBSpiMuM-91" edge="1">
                    <mxGeometry relative="1" as="geometry"/>
                </mxCell>
                <mxCell id="b2-oXmNP4d8y3Grfg1Qt-60" style="edgeStyle=none;html=1;entryX=0.5;entryY=1;entryDx=0;entryDy=0;sketch=1;curveFitting=1;jiggle=2;" parent="1" source="EEbqEYu41kwPEBSpiMuM-67" target="b2-oXmNP4d8y3Grfg1Qt-51" edge="1">
                    <mxGeometry relative="1" as="geometry"/>
                </mxCell>
                <mxCell id="EEbqEYu41kwPEBSpiMuM-67" value="Warehouse Manager" style="whiteSpace=wrap;strokeWidth=2;sketch=1;curveFitting=1;jiggle=2;" parent="1" vertex="1">
                    <mxGeometry x="580" y="180" width="203" height="49" as="geometry"/>
                </mxCell>
                <mxCell id="b2-oXmNP4d8y3Grfg1Qt-8" style="edgeStyle=none;html=1;sketch=1;curveFitting=1;jiggle=2;" parent="1" source="EEbqEYu41kwPEBSpiMuM-68" target="EEbqEYu41kwPEBSpiMuM-84" edge="1">
                    <mxGeometry relative="1" as="geometry"/>
                </mxCell>
                <mxCell id="b2-oXmNP4d8y3Grfg1Qt-10" style="edgeStyle=none;html=1;entryX=0.75;entryY=1;entryDx=0;entryDy=0;sketch=1;curveFitting=1;jiggle=2;" parent="1" source="EEbqEYu41kwPEBSpiMuM-68" target="EEbqEYu41kwPEBSpiMuM-83" edge="1">
                    <mxGeometry relative="1" as="geometry"/>
                </mxCell>
                <mxCell id="b2-oXmNP4d8y3Grfg1Qt-11" style="edgeStyle=none;html=1;sketch=1;curveFitting=1;jiggle=2;" parent="1" source="EEbqEYu41kwPEBSpiMuM-68" target="EEbqEYu41kwPEBSpiMuM-85" edge="1">
                    <mxGeometry relative="1" as="geometry"/>
                </mxCell>
                <mxCell id="b2-oXmNP4d8y3Grfg1Qt-12" style="edgeStyle=none;html=1;sketch=1;curveFitting=1;jiggle=2;" parent="1" source="EEbqEYu41kwPEBSpiMuM-68" target="EEbqEYu41kwPEBSpiMuM-86" edge="1">
                    <mxGeometry relative="1" as="geometry"/>
                </mxCell>
                <mxCell id="b2-oXmNP4d8y3Grfg1Qt-13" style="edgeStyle=none;html=1;entryX=0.75;entryY=0;entryDx=0;entryDy=0;sketch=1;curveFitting=1;jiggle=2;" parent="1" source="EEbqEYu41kwPEBSpiMuM-68" target="EEbqEYu41kwPEBSpiMuM-87" edge="1">
                    <mxGeometry relative="1" as="geometry"/>
                </mxCell>
                <mxCell id="b2-oXmNP4d8y3Grfg1Qt-14" style="edgeStyle=none;html=1;sketch=1;curveFitting=1;jiggle=2;" parent="1" source="EEbqEYu41kwPEBSpiMuM-68" target="EEbqEYu41kwPEBSpiMuM-82" edge="1">
                    <mxGeometry relative="1" as="geometry"/>
                </mxCell>
                <mxCell id="b2-oXmNP4d8y3Grfg1Qt-59" style="edgeStyle=none;html=1;entryX=1;entryY=0.25;entryDx=0;entryDy=0;sketch=1;curveFitting=1;jiggle=2;" parent="1" source="EEbqEYu41kwPEBSpiMuM-68" target="b2-oXmNP4d8y3Grfg1Qt-51" edge="1">
                    <mxGeometry relative="1" as="geometry"/>
                </mxCell>
                <mxCell id="EEbqEYu41kwPEBSpiMuM-68" value="Production Supervisor" style="whiteSpace=wrap;strokeWidth=2;sketch=1;curveFitting=1;jiggle=2;" parent="1" vertex="1">
                    <mxGeometry x="1120" y="180" width="216" height="49" as="geometry"/>
                </mxCell>
                <mxCell id="EEbqEYu41kwPEBSpiMuM-82" value="Create Work Orders" style="whiteSpace=wrap;strokeWidth=2;sketch=1;curveFitting=1;jiggle=2;" parent="1" vertex="1">
                    <mxGeometry x="1301" y="661" width="201" height="49" as="geometry"/>
                </mxCell>
                <mxCell id="EEbqEYu41kwPEBSpiMuM-83" value="Manage BOM" style="whiteSpace=wrap;strokeWidth=2;sketch=1;curveFitting=1;jiggle=2;" parent="1" vertex="1">
                    <mxGeometry x="1094" y="555" width="150" height="49" as="geometry"/>
                </mxCell>
                <mxCell id="EEbqEYu41kwPEBSpiMuM-84" value="Track Production Progress" style="whiteSpace=wrap;strokeWidth=2;sketch=1;curveFitting=1;jiggle=2;" parent="1" vertex="1">
                    <mxGeometry x="1270" y="555" width="243" height="49" as="geometry"/>
                </mxCell>
                <mxCell id="EEbqEYu41kwPEBSpiMuM-85" value="Quality Control" style="whiteSpace=wrap;strokeWidth=2;sketch=1;curveFitting=1;jiggle=2;" parent="1" vertex="1">
                    <mxGeometry x="875" y="555" width="169" height="49" as="geometry"/>
                </mxCell>
                <mxCell id="EEbqEYu41kwPEBSpiMuM-86" value="Resource Planning" style="whiteSpace=wrap;strokeWidth=2;sketch=1;curveFitting=1;jiggle=2;" parent="1" vertex="1">
                    <mxGeometry x="875" y="661" width="190" height="49" as="geometry"/>
                </mxCell>
                <mxCell id="EEbqEYu41kwPEBSpiMuM-87" value="Machine Maintenance" style="whiteSpace=wrap;strokeWidth=2;sketch=1;curveFitting=1;jiggle=2;" parent="1" vertex="1">
                    <mxGeometry x="1080" y="661" width="214" height="49" as="geometry"/>
                </mxCell>
                <mxCell id="EEbqEYu41kwPEBSpiMuM-88" value="Manage Receiving" style="whiteSpace=wrap;strokeWidth=2;sketch=1;curveFitting=1;jiggle=2;" parent="1" vertex="1">
                    <mxGeometry x="490" y="564" width="186" height="49" as="geometry"/>
                </mxCell>
                <mxCell id="EEbqEYu41kwPEBSpiMuM-89" value="Process Putaway" style="whiteSpace=wrap;strokeWidth=2;sketch=1;curveFitting=1;jiggle=2;" parent="1" vertex="1">
                    <mxGeometry x="262" y="564" width="178" height="49" as="geometry"/>
                </mxCell>
                <mxCell id="EEbqEYu41kwPEBSpiMuM-90" value="Generate Pick Lists" style="whiteSpace=wrap;strokeWidth=2;sketch=1;curveFitting=1;jiggle=2;" parent="1" vertex="1">
                    <mxGeometry x="15" y="564" width="197" height="49" as="geometry"/>
                </mxCell>
                <mxCell id="EEbqEYu41kwPEBSpiMuM-91" value="Manage Shipping" style="whiteSpace=wrap;strokeWidth=2;sketch=1;curveFitting=1;jiggle=2;" parent="1" vertex="1">
                    <mxGeometry x="30" y="670" width="179" height="49" as="geometry"/>
                </mxCell>
                <mxCell id="EEbqEYu41kwPEBSpiMuM-92" value="Track Storage Locations" style="whiteSpace=wrap;strokeWidth=2;sketch=1;curveFitting=1;jiggle=2;" parent="1" vertex="1">
                    <mxGeometry x="240" y="670" width="230" height="49" as="geometry"/>
                </mxCell>
                <mxCell id="EEbqEYu41kwPEBSpiMuM-93" value="Cross-dock Operations" style="whiteSpace=wrap;strokeWidth=2;sketch=1;curveFitting=1;jiggle=2;" parent="1" vertex="1">
                    <mxGeometry x="520" y="670" width="219" height="49" as="geometry"/>
                </mxCell>
                <mxCell id="EEbqEYu41kwPEBSpiMuM-106" value="" style="curved=1;startArrow=none;endArrow=block;exitX=0.78;exitY=1;entryX=0.5;entryY=0;rounded=0;sketch=1;curveFitting=1;jiggle=2;" parent="1" source="EEbqEYu41kwPEBSpiMuM-67" target="EEbqEYu41kwPEBSpiMuM-88" edge="1">
                    <mxGeometry relative="1" as="geometry">
                        <Array as="points">
                            <mxPoint x="583" y="514"/>
                        </Array>
                    </mxGeometry>
                </mxCell>
                <mxCell id="EEbqEYu41kwPEBSpiMuM-107" value="" style="curved=1;startArrow=none;endArrow=block;exitX=0.22;exitY=1;entryX=0.5;entryY=0;rounded=0;sketch=1;curveFitting=1;jiggle=2;" parent="1" source="EEbqEYu41kwPEBSpiMuM-67" target="EEbqEYu41kwPEBSpiMuM-89" edge="1">
                    <mxGeometry relative="1" as="geometry">
                        <Array as="points">
                            <mxPoint x="351" y="514"/>
                        </Array>
                    </mxGeometry>
                </mxCell>
                <mxCell id="EEbqEYu41kwPEBSpiMuM-108" value="" style="curved=1;startArrow=none;endArrow=block;exitX=0;exitY=0.79;entryX=0.5;entryY=0;rounded=0;sketch=1;curveFitting=1;jiggle=2;" parent="1" source="EEbqEYu41kwPEBSpiMuM-67" target="EEbqEYu41kwPEBSpiMuM-90" edge="1">
                    <mxGeometry relative="1" as="geometry">
                        <Array as="points">
                            <mxPoint x="114" y="514"/>
                        </Array>
                    </mxGeometry>
                </mxCell>
                <mxCell id="b2-oXmNP4d8y3Grfg1Qt-16" value="" style="whiteSpace=wrap;strokeWidth=2;sketch=1;curveFitting=1;jiggle=2;" parent="1" vertex="1">
                    <mxGeometry x="-20" y="1322" width="914" height="331" as="geometry"/>
                </mxCell>
                <mxCell id="b2-oXmNP4d8y3Grfg1Qt-17" value="Track Real-time Inventory" style="whiteSpace=wrap;strokeWidth=2;sketch=1;curveFitting=1;jiggle=2;" parent="1" vertex="1">
                    <mxGeometry x="569" y="1450" width="245" height="49" as="geometry"/>
                </mxCell>
                <mxCell id="b2-oXmNP4d8y3Grfg1Qt-18" value="Manage Safety Stock" style="whiteSpace=wrap;strokeWidth=2;sketch=1;curveFitting=1;jiggle=2;" parent="1" vertex="1">
                    <mxGeometry x="15" y="1453" width="207" height="49" as="geometry"/>
                </mxCell>
                <mxCell id="b2-oXmNP4d8y3Grfg1Qt-19" value="Process Stock Transfers" style="whiteSpace=wrap;strokeWidth=2;sketch=1;curveFitting=1;jiggle=2;" parent="1" vertex="1">
                    <mxGeometry x="277.5" y="1350" width="225" height="49" as="geometry"/>
                </mxCell>
                <mxCell id="b2-oXmNP4d8y3Grfg1Qt-20" value="Handle Stock Returns" style="whiteSpace=wrap;strokeWidth=2;sketch=1;curveFitting=1;jiggle=2;" parent="1" vertex="1">
                    <mxGeometry x="300" y="1450" width="212" height="49" as="geometry"/>
                </mxCell>
                <mxCell id="b2-oXmNP4d8y3Grfg1Qt-21" value="Manage Product Catalog" style="whiteSpace=wrap;strokeWidth=2;sketch=1;curveFitting=1;jiggle=2;" parent="1" vertex="1">
                    <mxGeometry x="15" y="1347" width="232" height="49" as="geometry"/>
                </mxCell>
                <mxCell id="b2-oXmNP4d8y3Grfg1Qt-22" value="Generate Reorder Alerts" style="whiteSpace=wrap;strokeWidth=2;sketch=1;curveFitting=1;jiggle=2;" parent="1" vertex="1">
                    <mxGeometry x="607" y="1339" width="233" height="49" as="geometry"/>
                </mxCell>
                <mxCell id="b2-oXmNP4d8y3Grfg1Qt-23" value="Track Batch/Expiry" style="whiteSpace=wrap;strokeWidth=2;sketch=1;curveFitting=1;jiggle=2;" parent="1" vertex="1">
                    <mxGeometry x="190" y="1553" width="196" height="49" as="geometry"/>
                </mxCell>
                <mxCell id="b2-oXmNP4d8y3Grfg1Qt-27" style="edgeStyle=none;html=1;sketch=1;curveFitting=1;jiggle=2;" parent="1" source="b2-oXmNP4d8y3Grfg1Qt-26" target="b2-oXmNP4d8y3Grfg1Qt-19" edge="1">
                    <mxGeometry relative="1" as="geometry"/>
                </mxCell>
                <mxCell id="b2-oXmNP4d8y3Grfg1Qt-28" style="edgeStyle=none;html=1;sketch=1;curveFitting=1;jiggle=2;" parent="1" source="b2-oXmNP4d8y3Grfg1Qt-26" target="b2-oXmNP4d8y3Grfg1Qt-22" edge="1">
                    <mxGeometry relative="1" as="geometry"/>
                </mxCell>
                <mxCell id="b2-oXmNP4d8y3Grfg1Qt-29" style="edgeStyle=none;html=1;sketch=1;curveFitting=1;jiggle=2;" parent="1" source="b2-oXmNP4d8y3Grfg1Qt-26" edge="1">
                    <mxGeometry relative="1" as="geometry">
                        <mxPoint x="63.32807017543837" y="1347" as="targetPoint"/>
                    </mxGeometry>
                </mxCell>
                <mxCell id="b2-oXmNP4d8y3Grfg1Qt-30" style="edgeStyle=none;html=1;sketch=1;curveFitting=1;jiggle=2;" parent="1" source="b2-oXmNP4d8y3Grfg1Qt-26" target="b2-oXmNP4d8y3Grfg1Qt-20" edge="1">
                    <mxGeometry relative="1" as="geometry"/>
                </mxCell>
                <mxCell id="b2-oXmNP4d8y3Grfg1Qt-31" style="edgeStyle=none;html=1;sketch=1;curveFitting=1;jiggle=2;" parent="1" source="b2-oXmNP4d8y3Grfg1Qt-26" target="b2-oXmNP4d8y3Grfg1Qt-17" edge="1">
                    <mxGeometry relative="1" as="geometry"/>
                </mxCell>
                <mxCell id="b2-oXmNP4d8y3Grfg1Qt-32" style="edgeStyle=none;html=1;sketch=1;curveFitting=1;jiggle=2;" parent="1" source="b2-oXmNP4d8y3Grfg1Qt-26" edge="1">
                    <mxGeometry relative="1" as="geometry">
                        <mxPoint x="45.015984654731255" y="1453" as="targetPoint"/>
                    </mxGeometry>
                </mxCell>
                <mxCell id="b2-oXmNP4d8y3Grfg1Qt-33" style="edgeStyle=none;html=1;entryX=0.5;entryY=0;entryDx=0;entryDy=0;sketch=1;curveFitting=1;jiggle=2;" parent="1" source="b2-oXmNP4d8y3Grfg1Qt-26" target="b2-oXmNP4d8y3Grfg1Qt-23" edge="1">
                    <mxGeometry relative="1" as="geometry"/>
                </mxCell>
                <mxCell id="b2-oXmNP4d8y3Grfg1Qt-35" style="edgeStyle=none;html=1;entryX=0.75;entryY=1;entryDx=0;entryDy=0;sketch=1;curveFitting=1;jiggle=2;" parent="1" source="b2-oXmNP4d8y3Grfg1Qt-26" target="EEbqEYu41kwPEBSpiMuM-84" edge="1">
                    <mxGeometry relative="1" as="geometry"/>
                </mxCell>
                <mxCell id="b2-oXmNP4d8y3Grfg1Qt-58" style="edgeStyle=none;html=1;entryX=0;entryY=0.75;entryDx=0;entryDy=0;sketch=1;curveFitting=1;jiggle=2;" parent="1" source="b2-oXmNP4d8y3Grfg1Qt-26" target="b2-oXmNP4d8y3Grfg1Qt-51" edge="1">
                    <mxGeometry relative="1" as="geometry"/>
                </mxCell>
                <mxCell id="b2-oXmNP4d8y3Grfg1Qt-26" value="Inventory Clerk" style="whiteSpace=wrap;strokeWidth=2;sketch=1;curveFitting=1;jiggle=2;" parent="1" vertex="1">
                    <mxGeometry x="237" y="1062" width="170" height="49" as="geometry"/>
                </mxCell>
                <mxCell id="b2-oXmNP4d8y3Grfg1Qt-37" style="edgeStyle=none;html=1;entryX=1;entryY=0.5;entryDx=0;entryDy=0;sketch=1;curveFitting=1;jiggle=2;" parent="1" source="b2-oXmNP4d8y3Grfg1Qt-36" target="b2-oXmNP4d8y3Grfg1Qt-26" edge="1">
                    <mxGeometry relative="1" as="geometry"/>
                </mxCell>
                <mxCell id="b2-oXmNP4d8y3Grfg1Qt-38" style="edgeStyle=none;html=1;entryX=0.905;entryY=1.122;entryDx=0;entryDy=0;entryPerimeter=0;sketch=1;curveFitting=1;jiggle=2;" parent="1" source="b2-oXmNP4d8y3Grfg1Qt-36" target="EEbqEYu41kwPEBSpiMuM-84" edge="1">
                    <mxGeometry relative="1" as="geometry"/>
                </mxCell>
                <mxCell id="b2-oXmNP4d8y3Grfg1Qt-57" style="edgeStyle=none;html=1;entryX=0.5;entryY=0;entryDx=0;entryDy=0;sketch=1;curveFitting=1;jiggle=2;" parent="1" source="b2-oXmNP4d8y3Grfg1Qt-36" target="b2-oXmNP4d8y3Grfg1Qt-51" edge="1">
                    <mxGeometry relative="1" as="geometry"/>
                </mxCell>
                <mxCell id="b2-oXmNP4d8y3Grfg1Qt-36" value="Regional Manager" style="whiteSpace=wrap;strokeWidth=2;sketch=1;curveFitting=1;jiggle=2;" parent="1" vertex="1">
                    <mxGeometry x="918" y="1072" width="185" height="49" as="geometry"/>
                </mxCell>
                <mxCell id="b2-oXmNP4d8y3Grfg1Qt-45" value="Authentication &amp; Authorization" style="whiteSpace=wrap;strokeWidth=2;sketch=1;curveFitting=1;jiggle=2;" parent="1" vertex="1">
                    <mxGeometry x="1350" y="1430" width="600" height="223" as="geometry"/>
                </mxCell>
                <mxCell id="b2-oXmNP4d8y3Grfg1Qt-46" style="edgeStyle=none;html=1;entryX=0.244;entryY=0.327;entryDx=0;entryDy=0;entryPerimeter=0;sketch=1;curveFitting=1;jiggle=2;" parent="1" source="b2-oXmNP4d8y3Grfg1Qt-48" target="b2-oXmNP4d8y3Grfg1Qt-54" edge="1">
                    <mxGeometry relative="1" as="geometry"/>
                </mxCell>
                <mxCell id="b2-oXmNP4d8y3Grfg1Qt-47" style="edgeStyle=none;html=1;sketch=1;curveFitting=1;jiggle=2;" parent="1" source="b2-oXmNP4d8y3Grfg1Qt-48" target="b2-oXmNP4d8y3Grfg1Qt-51" edge="1">
                    <mxGeometry relative="1" as="geometry"/>
                </mxCell>
                <mxCell id="b2-oXmNP4d8y3Grfg1Qt-48" value="System Administrator" style="whiteSpace=wrap;strokeWidth=2;sketch=1;curveFitting=1;jiggle=2;" parent="1" vertex="1">
                    <mxGeometry x="1683" y="1301" width="213" height="49" as="geometry"/>
                </mxCell>
                <mxCell id="b2-oXmNP4d8y3Grfg1Qt-49" style="edgeStyle=none;html=1;sketch=1;curveFitting=1;jiggle=2;" parent="1" source="b2-oXmNP4d8y3Grfg1Qt-50" target="b2-oXmNP4d8y3Grfg1Qt-51" edge="1">
                    <mxGeometry relative="1" as="geometry"/>
                </mxCell>
                <mxCell id="b2-oXmNP4d8y3Grfg1Qt-50" value="Sales Staff" style="whiteSpace=wrap;strokeWidth=2;sketch=1;curveFitting=1;jiggle=2;" parent="1" vertex="1">
                    <mxGeometry x="1480" y="1301" width="136" height="49" as="geometry"/>
                </mxCell>
                <mxCell id="b2-oXmNP4d8y3Grfg1Qt-51" value="Login" style="whiteSpace=wrap;strokeWidth=2;sketch=1;curveFitting=1;jiggle=2;" parent="1" vertex="1">
                    <mxGeometry x="1501" y="1455" width="98" height="49" as="geometry"/>
                </mxCell>
                <mxCell id="b2-oXmNP4d8y3Grfg1Qt-52" value="Verify 2FA" style="whiteSpace=wrap;strokeWidth=2;sketch=1;curveFitting=1;jiggle=2;" parent="1" vertex="1">
                    <mxGeometry x="1484" y="1579" width="132" height="49" as="geometry"/>
                </mxCell>
                <mxCell id="b2-oXmNP4d8y3Grfg1Qt-53" value="Reset Password" style="whiteSpace=wrap;strokeWidth=2;sketch=1;curveFitting=1;jiggle=2;" parent="1" vertex="1">
                    <mxGeometry x="1738" y="1579" width="169" height="49" as="geometry"/>
                </mxCell>
                <mxCell id="b2-oXmNP4d8y3Grfg1Qt-54" value="Manage User Access" style="whiteSpace=wrap;strokeWidth=2;sketch=1;curveFitting=1;jiggle=2;" parent="1" vertex="1">
                    <mxGeometry x="1714" y="1455" width="201" height="49" as="geometry"/>
                </mxCell>
                <mxCell id="b2-oXmNP4d8y3Grfg1Qt-55" value="" style="curved=1;startArrow=none;endArrow=block;exitX=0.5;exitY=0.99;entryX=0.5;entryY=-0.01;rounded=0;sketch=1;curveFitting=1;jiggle=2;" parent="1" source="b2-oXmNP4d8y3Grfg1Qt-51" target="b2-oXmNP4d8y3Grfg1Qt-52" edge="1">
                    <mxGeometry relative="1" as="geometry">
                        <Array as="points"/>
                    </mxGeometry>
                </mxCell>
            </root>
        </mxGraphModel>
    </diagram>
</mxfile>